<svg width="11" height="9" viewBox="0 0 11 9" fill="none" xmlns="http://www.w3.org/2000/svg">
<path d="M9.5 8.3999H1.5C1.23478 8.3999 0.98043 8.29455 0.792893 8.10701C0.605357 7.91947 0.5 7.66512 0.5 7.3999V1.3564C0.511216 1.0988 0.621504 0.855482 0.807839 0.677253C0.994174 0.499024 1.24215 0.399659 1.5 0.399903H9.5C9.76522 0.399903 10.0196 0.50526 10.2071 0.692796C10.3946 0.880332 10.5 1.13469 10.5 1.3999V7.3999C10.5 7.66512 10.3946 7.91947 10.2071 8.10701C10.0196 8.29455 9.76522 8.3999 9.5 8.3999ZM1.5 2.3339V7.3999H9.5V2.3339L5.5 4.9999L1.5 2.3339ZM1.9 1.3999L5.5 3.7999L9.1 1.3999H1.9Z" fill="#F36F21"/>
</svg>
