<svg width="9" height="11" viewBox="0 0 9 11" fill="none" xmlns="http://www.w3.org/2000/svg">
<path d="M4.18578 10.8158C4.27745 10.8813 4.38729 10.9165 4.49995 10.9165C4.6126 10.9165 4.72244 10.8813 4.81411 10.8158C4.97878 10.6994 8.84899 7.90492 8.83328 4.41659C8.83328 2.02729 6.88924 0.083252 4.49995 0.083252C2.11065 0.083252 0.166613 2.02729 0.166613 4.41388C0.150904 7.90492 4.02111 10.6994 4.18578 10.8158ZM4.49995 1.16659C6.29232 1.16659 7.74995 2.62421 7.74995 4.41929C7.76132 6.82321 5.37311 8.98175 4.49995 9.68971C3.62732 8.98121 1.23857 6.82213 1.24995 4.41659C1.24995 2.62421 2.70757 1.16659 4.49995 1.16659Z" fill="#F36F21"/>
</svg>
