<svg width="24" height="25" viewBox="0 0 24 25" fill="none" xmlns="http://www.w3.org/2000/svg">
<path d="M12 17.6666C13.3261 17.6666 14.5979 17.1222 15.5355 16.1533C16.4732 15.1844 17 13.8702 17 12.4999C17 11.1296 16.4732 9.81547 15.5355 8.84653C14.5979 7.8776 13.3261 7.33325 12 7.33325C10.6739 7.33325 9.40215 7.8776 8.46447 8.84653C7.52678 9.81547 7 11.1296 7 12.4999C7 13.8702 7.52678 15.1844 8.46447 16.1533C9.40215 17.1222 10.6739 17.6666 12 17.6666V17.6666Z" stroke="#F36F21" stroke-width="1.5" stroke-linecap="round" stroke-linejoin="round"/>
<path d="M0.75 17.6667V7.33333C0.75 5.62048 1.40848 3.97777 2.58058 2.7666C3.75269 1.55543 5.3424 0.875 7 0.875H17C18.6576 0.875 20.2473 1.55543 21.4194 2.7666C22.5915 3.97777 23.25 5.62048 23.25 7.33333V17.6667C23.25 19.3795 22.5915 21.0222 21.4194 22.2334C20.2473 23.4446 18.6576 24.125 17 24.125H7C5.3424 24.125 3.75269 23.4446 2.58058 22.2334C1.40848 21.0222 0.75 19.3795 0.75 17.6667Z" stroke="#F36F21" stroke-width="1.5"/>
<path d="M18.8751 5.40761L18.8869 5.39453" stroke="#F36F21" stroke-width="1.5" stroke-linecap="round" stroke-linejoin="round"/>
</svg>
