<svg width="24" height="24" viewBox="0 0 24 24" fill="none" xmlns="http://www.w3.org/2000/svg">
<path d="M0 11.6097V11.5758C0.301255 7.638 1.70711 4.68467 4.15063 2.81763C6.56067 0.916638 9.17155 8.90009e-05 12.0167 8.90009e-05C14.9958 -0.0338572 17.7741 0.98453 20.251 3.02131C22.7615 5.02413 24 8.0114 24 11.8813V12.1189C24 16.0227 22.7615 18.9421 20.251 20.9449C17.7406 22.9817 14.9623 24.0001 11.9833 24.0001H11.8494C8.93724 23.9661 6.25941 22.9478 3.78243 20.911C1.30544 18.9081 0.0334728 15.819 0 11.6097ZM11.2803 6.28015V0.916638H10.477C10.3096 1.12032 10.1757 1.35794 10.0418 1.56162C9.90795 1.76529 9.77406 1.96897 9.64017 2.2066C9.50628 2.41027 9.33891 2.68184 9.23849 2.88552C9.1046 3.0892 9.00418 3.29288 8.90377 3.5305C8.70293 3.86996 8.53556 4.20942 8.40167 4.51494C8.23431 4.82046 8.10042 5.12597 8 5.39754C8.20084 5.53333 8.43515 5.70306 8.70293 5.8049C9.00418 5.90674 9.30544 6.00858 9.60669 6.07647C9.94142 6.14436 10.2427 6.17831 10.5105 6.21225C10.8117 6.2462 11.0795 6.28015 11.2803 6.28015ZM12.6862 0.916638V6.2462C12.8536 6.2462 13.0544 6.28015 13.2552 6.2462C13.4561 6.2462 13.6904 6.21225 13.8912 6.17831C14.2594 6.11041 14.6946 6.00858 15.0293 5.90674C15.3975 5.77095 15.7322 5.60122 15.9665 5.39754C15.5649 4.4131 15.1297 3.63234 14.6946 2.88552C14.2594 2.1387 13.7573 1.49372 13.2218 0.950584V0.916638H12.6862ZM9.07113 1.22215V1.18821C8.83682 1.29005 8.60251 1.45978 8.33473 1.56162C8.10042 1.66346 7.79916 1.79924 7.56485 1.93503C7.09623 2.17265 6.62761 2.44422 6.159 2.74974C5.72385 3.05525 5.2887 3.39471 4.9205 3.73418C5.05439 3.86996 5.22176 4.00575 5.35565 4.10759C5.48954 4.20942 5.6569 4.34521 5.82427 4.48099C5.95816 4.54889 6.12552 4.65073 6.29289 4.78651C6.46025 4.88835 6.66109 5.02413 6.86192 5.15992C7.12971 4.54889 7.39749 3.90391 7.73222 3.32682C8.06695 2.71579 8.43515 2.1387 8.80335 1.62951C8.83682 1.56162 8.87029 1.49372 8.93724 1.42583C8.97071 1.39189 9.00418 1.29005 9.07113 1.22215ZM19.3138 3.73418V3.70023C18.477 3.05525 17.7406 2.51211 17.0042 2.17265C16.2678 1.83319 15.5314 1.49372 14.8619 1.22215C15.3975 1.76529 15.8661 2.44422 16.1674 3.0892C16.5021 3.76812 16.8368 4.48099 17.1046 5.15992C17.2385 5.09203 17.4059 5.02413 17.6067 4.88835C17.7741 4.78651 18.0084 4.68467 18.2092 4.58283C18.41 4.44705 18.5774 4.31126 18.7782 4.17548C18.9791 4.00575 19.1799 3.86996 19.3138 3.73418ZM18.7448 11.3042H22.5941C22.5941 10.0482 22.3264 8.86006 21.8243 7.638C21.3556 6.44988 20.6862 5.46544 19.8494 4.61678V4.58283C19.682 4.8544 19.4477 5.09203 19.2134 5.26176C18.9456 5.43149 18.7113 5.56727 18.4435 5.70306C18.2761 5.8049 18.1088 5.94068 17.9414 6.00858C17.7741 6.11041 17.5397 6.17831 17.3724 6.28015C17.5063 6.55172 17.6402 6.85723 17.7741 7.1288C17.8745 7.43432 18.0418 7.77378 18.1088 8.0793C18.3096 8.62244 18.4435 9.19952 18.5774 9.77661C18.6778 10.2858 18.7448 10.8289 18.7448 11.3042ZM6.62761 6.28015V6.2462C6.35983 6.11041 6.05858 6.00858 5.82427 5.87279C5.58996 5.70306 5.35565 5.53333 5.15481 5.39754C4.95397 5.2957 4.75314 5.15992 4.58577 5.02413C4.41841 4.88835 4.28452 4.75256 4.15063 4.61678C3.28033 5.46544 2.64435 6.41593 2.24268 7.53616C1.80753 8.65638 1.50628 9.91239 1.37238 11.2702H5.48954C5.48954 10.3197 5.62343 9.4032 5.85774 8.48665C6.05858 7.53616 6.35983 6.82329 6.62761 6.28015ZM11.2803 11.2702V7.36643C11.0126 7.40037 10.6778 7.40037 10.3766 7.36643C10.0418 7.33248 9.70711 7.23064 9.40586 7.1288C9.13807 7.06091 8.80335 6.99302 8.53556 6.89118C8.23431 6.82329 7.93305 6.6875 7.69874 6.55172C7.49791 6.89118 7.33054 7.29853 7.19665 7.73983C7.02929 8.14719 6.92887 8.58849 6.82845 8.99584C6.76151 9.4032 6.72803 9.8445 6.69456 10.2179C6.66109 10.5913 6.62761 10.9647 6.62761 11.2702H11.2803ZM12.6862 7.43432V11.2702H17.6402C17.6402 11.0666 17.6402 10.8289 17.6067 10.5574C17.5397 10.3197 17.5063 10.0142 17.4728 9.74266C17.3724 9.33531 17.272 8.89401 17.1381 8.48665C17.0042 8.11324 16.8703 7.73983 16.7029 7.43432C16.636 7.26459 16.569 7.06091 16.5021 6.92512C16.4017 6.75539 16.3013 6.65355 16.2343 6.55172C15.8661 6.82329 15.364 6.99302 14.7615 7.1288C14.1925 7.26459 13.523 7.40037 12.9205 7.43432H12.6862ZM5.48954 12.3905H1.37238C1.37238 12.9676 1.4728 13.6125 1.64017 14.3933C1.80753 15.208 2.14226 15.9548 2.51046 16.7695C2.67782 17.1769 2.87866 17.5842 3.0795 17.9916C3.31381 18.365 3.58159 18.7724 3.84937 19.1458C4.05021 19.01 4.25105 18.9081 4.41841 18.8063C4.61925 18.7045 4.85356 18.5687 5.05439 18.4668C5.2887 18.365 5.52301 18.2632 5.79079 18.1274C6.0251 18.0255 6.32636 17.8898 6.62761 17.754C6.35983 16.9053 6.05858 16.0906 5.85774 15.1741C5.62343 14.2915 5.48954 13.4089 5.48954 12.4244V12.3905ZM11.2803 16.3622V12.3905H6.62761C6.62761 12.662 6.66109 13.0694 6.72803 13.4768C6.76151 13.8841 6.86192 14.3254 6.92887 14.7667C7.06276 15.242 7.16318 15.7172 7.29707 16.1246C7.43096 16.5319 7.56485 16.8714 7.69874 17.1769C8.30126 16.9393 8.90377 16.7695 9.30544 16.6677C9.74059 16.5319 10.1423 16.4301 10.5439 16.3961H10.9121C11.046 16.3622 11.1799 16.3622 11.2803 16.3622ZM12.6862 12.3905V16.3282C12.9205 16.3622 13.1883 16.3961 13.4561 16.4301C13.7573 16.464 14.1255 16.5319 14.4268 16.5998L14.9289 16.7016C15.0962 16.7695 15.2971 16.8035 15.4644 16.8374C15.6653 16.9053 15.8661 16.9393 16.0669 17.0072C16.2343 17.0751 16.4017 17.109 16.5356 17.1769C16.9707 16.0567 17.2385 15.1401 17.4059 14.3594C17.5732 13.6125 17.6402 12.9676 17.6402 12.4244V12.3905H12.6862ZM22.5941 12.4244V12.3905H18.7448V12.5941C18.7113 13.2391 18.6109 13.9859 18.477 14.7667C18.3431 15.5135 18.0418 16.3961 17.6402 17.4824C18.1757 17.754 18.6778 18.0255 19.0795 18.2971C19.4812 18.5687 19.8494 18.8742 20.1172 19.1458C20.6862 18.5687 21.1883 17.7879 21.6234 16.7695C22.0586 15.7851 22.3598 14.7667 22.5272 13.6804C22.5607 13.4768 22.5607 13.2731 22.5941 13.0694V12.4244ZM11.2803 22.7441V17.4485C10.4435 17.5842 9.74059 17.754 9.20502 17.8898C8.66946 18.0255 8.26778 18.1613 8 18.2971C8.20084 18.8063 8.40167 19.2476 8.60251 19.655C8.80335 20.0284 9.03766 20.4357 9.23849 20.7752C9.30544 20.911 9.43933 21.0468 9.53975 21.2165C9.64017 21.3523 9.70711 21.522 9.80753 21.6578C9.90795 21.8275 10.0084 22.0312 10.1088 22.2349C10.2427 22.4046 10.3431 22.6083 10.477 22.7441H11.2803ZM12.6862 22.7441H13.4561C13.7573 22.5065 14.0586 22.167 14.2929 21.7936C14.5607 21.4202 14.8619 20.9789 15.0628 20.6055C15.2971 20.1642 15.5314 19.7568 15.7322 19.3495C15.9331 18.9421 16.1004 18.5687 16.2343 18.2971C15.8661 18.1613 15.364 18.0255 14.8619 17.8898C14.3598 17.754 13.6569 17.6182 12.6862 17.4824V22.7441ZM19.3138 19.9605V19.9265C19.2469 19.8247 19.113 19.6889 19.0126 19.5871C18.9121 19.4852 18.7448 19.3495 18.5774 19.2476C18.4435 19.1458 18.2761 19.0439 18.0753 18.9421C17.8745 18.8403 17.6067 18.7045 17.3724 18.5687C17.2385 18.8403 17.0042 19.3155 16.6695 19.9605C16.3682 20.6055 15.8326 21.3862 15.1632 22.2349C16 22.0991 16.7364 21.7936 17.4059 21.3862C18.1423 21.0128 18.7782 20.5036 19.3138 19.9605ZM6.86192 18.8742V18.8403C6.62761 18.976 6.25941 19.1458 5.89121 19.3155C5.48954 19.4852 5.05439 19.6889 4.65272 19.9605C4.88703 20.1642 5.12134 20.3678 5.32218 20.5036C5.52301 20.6734 5.75732 20.8091 5.95816 20.9449C6.32636 21.1825 6.76151 21.4202 7.19665 21.6238C7.6318 21.8275 8.16736 22.0312 8.83682 22.2349C8.60251 21.9633 8.43515 21.6238 8.26778 21.3523C8.10042 21.0807 7.89958 20.8091 7.73222 20.5376C7.56485 20.266 7.43096 19.9605 7.29707 19.6889C7.12971 19.4173 6.99582 19.1458 6.86192 18.8742Z" fill="#F36F21"/>
</svg>
