<svg width="10" height="10" viewBox="0 0 10 10" fill="none" xmlns="http://www.w3.org/2000/svg">
<path d="M7.74107 5.41571C7.69224 5.3668 7.63426 5.32801 7.57043 5.30154C7.50659 5.27507 7.43817 5.26144 7.36907 5.26144C7.29996 5.26144 7.23154 5.27507 7.16771 5.30154C7.10387 5.32801 7.04589 5.3668 6.99707 5.41571L6.15836 6.25438C5.76952 6.13863 5.04394 5.87556 4.58407 5.41571C4.1242 4.95586 3.86112 4.2303 3.74536 3.84148L4.58407 3.00281C4.63298 2.95399 4.67177 2.89601 4.69825 2.83218C4.72472 2.76835 4.73834 2.69993 4.73834 2.63083C4.73834 2.56173 4.72472 2.4933 4.69825 2.42947C4.67177 2.36565 4.63298 2.30766 4.58407 2.25884L2.47941 0.154266C2.43059 0.105363 2.3726 0.0665665 2.30877 0.0400958C2.24494 0.0136251 2.17651 0 2.10741 0C2.0383 0 1.96988 0.0136251 1.90605 0.0400958C1.84222 0.0665665 1.78423 0.105363 1.73541 0.154266L0.308447 1.58117C0.108504 1.7811 -0.00409539 2.05575 0.000113938 2.33619C0.0122158 3.08541 0.21058 5.68772 2.26157 7.73863C4.31257 9.78954 6.91498 9.98737 7.66477 10H7.6795C7.95732 10 8.21988 9.89056 8.41877 9.69168L9.84573 8.26478C9.89463 8.21596 9.93343 8.15797 9.9599 8.09415C9.98637 8.03032 10 7.96189 10 7.89279C10 7.82369 9.98637 7.75527 9.9599 7.69144C9.93343 7.62761 9.89463 7.56963 9.84573 7.52081L7.74107 5.41571ZM7.67424 8.94718C7.01759 8.93614 4.77086 8.75988 3.00557 6.99414C1.2345 5.22314 1.06297 2.96861 1.05245 2.32514L2.10741 1.27022L3.46807 2.63083L2.78774 3.31113C2.7259 3.37293 2.68042 3.44916 2.65544 3.53294C2.63045 3.61671 2.62673 3.7054 2.64462 3.79097C2.65725 3.85148 2.96611 5.28628 3.83955 6.15967C4.71298 7.03307 6.14783 7.34192 6.20834 7.35455C6.29387 7.37294 6.38265 7.36952 6.46651 7.34461C6.55036 7.31969 6.6266 7.27407 6.68821 7.21196L7.36907 6.53166L8.72973 7.89227L7.67424 8.94718Z" fill="#F36F21"/>
</svg>
